<?xml version="1.0" standalone="no"?>
<!DOCTYPE svg PUBLIC "-//W3C//DTD SVG 20010904//EN"
 "http://www.w3.org/TR/2001/REC-SVG-20010904/DTD/svg10.dtd">
<svg version="1.0" xmlns="http://www.w3.org/2000/svg"
 width="1094.000000pt" height="1094.000000pt" viewBox="0 0 1094.000000 1094.000000"
 preserveAspectRatio="xMidYMid meet">
<metadata>
  <rdf:RDF
       xmlns:rdf = "http://www.w3.org/1999/02/22-rdf-syntax-ns#"
       xmlns:rdfs = "http://www.w3.org/2000/01/rdf-schema#"
       xmlns:dc = "http://purl.org/dc/elements/1.1/" >
    <rdf:Description about="https://github.com/cameleon-rs"
         dc:title="Cameleon logo"
         dc:format="image/svg+xml"
         dc:language="en" >
      <dc:creator>
         Yui Maruya
      </dc:creator>
    </rdf:Description>
  </rdf:RDF>
</metadata>
<g transform="translate(0.000000,1094.000000) scale(0.100000,-0.100000)"
fill="#000000" stroke="none">
<path d="M5984 10774 c-50 -17 -61 -32 -195 -248 -62 -98 -119 -186 -128 -195
-12 -12 -36 -18 -73 -20 -52 -2 -56 0 -87 36 -68 79 -304 324 -323 334 -29 16
-91 13 -127 -6 -38 -19 -47 -38 -150 -310 -40 -104 -75 -193 -79 -197 -4 -3
-30 -13 -59 -21 l-52 -15 -196 139 c-108 77 -208 144 -221 150 -39 14 -76 11
-111 -11 -54 -32 -66 -62 -87 -205 -4 -23 -8 -50 -10 -60 -2 -11 -14 -81 -26
-157 l-23 -136 -47 -26 c-26 -14 -52 -26 -58 -26 -5 0 -105 43 -221 95 -231
105 -277 117 -330 87 -67 -37 -72 -60 -65 -297 4 -115 7 -233 8 -261 l0 -51
100 -69 c139 -96 320 -230 454 -336 69 -56 118 -88 127 -84 8 3 48 27 87 54
232 156 508 291 793 388 114 39 312 95 385 108 14 2 45 9 70 15 l45 11 99
-103 c54 -56 159 -164 232 -240 142 -146 183 -174 267 -181 51 -5 131 20 173
53 16 12 105 95 198 184 313 301 287 278 326 272 60 -9 84 -14 202 -45 513
-133 980 -376 1393 -724 81 -68 319 -306 385 -385 157 -187 380 -513 380 -554
0 -7 -54 -136 -121 -287 -216 -492 -219 -499 -213 -559 7 -72 38 -134 87 -176
22 -19 44 -35 48 -35 4 0 45 -18 91 -39 45 -22 187 -85 313 -141 127 -56 231
-103 232 -104 6 -5 17 -251 17 -371 0 -126 -10 -339 -18 -383 -2 -9 -6 -37 -9
-62 -14 -101 -18 -127 -22 -150 -3 -14 -8 -41 -11 -60 -4 -19 -8 -42 -9 -50
-13 -70 -75 -292 -114 -410 -134 -399 -326 -747 -603 -1091 l-88 -109 38 -24
c65 -42 120 -113 156 -206 18 -46 20 -53 36 -130 23 -120 5 -322 -39 -432 -8
-22 -6 -49 10 -125 11 -54 21 -98 22 -99 2 -2 257 -61 293 -68 11 -2 39 -9 64
-16 24 -6 67 -13 96 -15 84 -6 144 50 144 133 0 14 -21 113 -46 221 -25 108
-48 210 -51 226 -3 17 -6 33 -6 37 -1 4 14 27 33 52 l35 44 125 -4 c318 -12
380 -11 413 5 42 22 66 58 71 109 3 38 -9 72 -99 270 l-103 227 24 47 c30 60
27 58 120 73 22 3 50 8 64 10 14 2 95 16 180 30 203 34 245 61 245 159 0 36
-12 58 -92 171 -51 72 -117 166 -148 211 l-56 81 16 55 16 55 192 73 c106 40
216 83 244 96 64 28 93 70 93 134 0 44 -2 47 -112 155 -62 61 -150 144 -195
186 -87 80 -88 82 -68 174 3 13 69 59 191 135 235 145 264 170 271 231 10 86
3 92 -334 304 -127 79 -128 80 -137 157 -3 35 0 41 58 94 324 301 326 303 326
369 0 86 -23 101 -332 216 l-196 74 -18 57 -17 57 120 168 c66 92 133 188 149
211 36 56 38 114 6 160 -22 30 -71 64 -89 61 -7 0 -84 11 -108 17 -5 1 -30 5
-55 8 -25 4 -70 11 -100 16 -30 5 -72 12 -94 16 -104 16 -108 18 -137 72 l-26
49 98 219 c54 120 100 235 103 254 8 50 -25 114 -70 135 -31 14 -63 16 -277
10 -133 -4 -245 -9 -249 -11 -7 -5 -84 84 -81 94 0 4 4 24 7 44 3 20 17 86 32
145 14 59 28 119 30 133 3 14 9 41 15 60 31 113 19 177 -42 220 -44 32 -85 28
-384 -44 l-180 -43 -47 39 -46 38 4 88 c13 290 12 417 -3 449 -19 40 -51 62
-106 69 -38 6 -64 -4 -270 -97 l-227 -102 -50 23 c-44 21 -58 37 -66 75 -3 15
-13 80 -20 123 -6 44 -42 254 -49 295 -18 93 -121 145 -198 99 -18 -10 -112
-76 -210 -145 -97 -69 -182 -127 -189 -129 -7 -1 -36 4 -63 10 l-51 13 -73
197 c-104 279 -115 300 -164 322 -36 17 -64 18 -108 4 -16 -4 -150 -139 -296
-297 l-72 -78 -53 2 c-65 3 -67 5 -182 191 -145 233 -169 264 -214 275 -29 8
-50 7 -78 -3z m142 -881 c161 -82 199 -301 73 -423 -37 -36 -117 -76 -164 -83
-44 -6 -130 19 -179 52 -173 119 -138 392 61 466 58 22 153 16 209 -12z m3391
-2587 c87 -44 147 -142 147 -241 0 -42 -33 -123 -67 -162 -133 -151 -349 -122
-443 59 -32 60 -30 161 3 228 66 133 226 185 360 116z"/>
<path d="M672 10234 c-80 -21 -177 -73 -223 -118 -97 -96 -138 -239 -154 -541
-7 -135 -14 -203 -31 -300 -7 -40 -37 -101 -76 -153 -29 -38 -32 -49 -31 -110
0 -78 17 -117 69 -164 59 -54 67 -82 68 -240 1 -60 -2 -71 -33 -115 -65 -91
-54 -196 29 -282 27 -29 50 -58 51 -64 0 -7 3 -23 5 -37 30 -158 26 -218 -17
-278 -24 -33 -34 -59 -37 -96 -7 -83 13 -134 73 -191 29 -27 58 -59 63 -70 15
-29 54 -242 54 -288 -1 -22 -14 -66 -33 -103 -27 -57 -31 -72 -25 -116 9 -63
38 -121 72 -145 81 -56 93 -74 130 -193 35 -115 36 -130 15 -208 -26 -94 39
-216 128 -243 53 -16 75 -38 128 -126 53 -88 61 -135 35 -205 -36 -101 37
-243 136 -263 70 -14 92 -39 141 -159 40 -96 41 -127 7 -192 -32 -62 -36 -87
-21 -151 15 -64 53 -117 104 -142 51 -26 85 -82 126 -204 55 -166 64 -234 60
-472 -2 -115 -5 -219 -8 -230 -3 -11 -8 -45 -11 -76 -11 -92 -14 -100 -56
-158 -194 -268 -328 -612 -367 -941 -15 -125 -7 -486 11 -541 3 -8 7 -30 10
-49 25 -196 155 -524 286 -725 116 -178 300 -389 445 -510 83 -70 279 -200
354 -235 l53 -24 -6 -46 c-3 -25 -10 -65 -17 -90 -6 -25 -12 -52 -14 -60 -11
-51 -54 -161 -103 -260 -31 -63 -58 -118 -60 -123 -7 -15 177 57 293 114 139
69 266 157 382 263 l81 76 79 -7 c43 -4 121 -7 173 -7 110 -1 106 2 167 -126
67 -143 122 -321 135 -435 2 -16 7 -32 12 -35 13 -7 139 208 181 309 34 79 81
228 105 327 l10 41 83 17 c45 9 141 32 212 51 l130 35 53 -58 c117 -125 246
-353 302 -532 l27 -85 22 43 c63 123 137 354 156 482 3 25 8 56 10 70 3 14 7
61 10 104 5 82 7 89 28 92 57 9 243 34 287 39 30 4 66 8 80 10 109 16 567 28
575 15 3 -4 12 -50 21 -101 29 -167 22 -428 -16 -567 l-9 -34 27 18 c177 112
382 335 503 546 40 69 54 86 69 83 39 -7 263 -23 352 -24 l56 -1 20 -63 c50
-156 67 -271 67 -459 l0 -137 29 27 c170 156 317 374 421 622 11 26 7 25 125
34 123 9 203 17 218 21 31 11 168 -236 226 -408 l33 -97 26 52 c53 109 113
278 132 379 6 31 19 92 21 102 1 4 2 20 3 37 1 27 8 33 67 60 175 79 359 239
473 409 95 143 154 269 212 454 l27 87 -41 29 c-98 66 -216 119 -363 162 -66
19 -78 22 -124 34 -11 3 -29 7 -40 10 -48 12 -67 16 -90 21 -14 3 -43 10 -65
16 -22 6 -53 12 -70 15 -16 2 -36 6 -43 8 -77 26 -649 27 -787 1 -11 -2 -45
-7 -76 -10 -31 -4 -67 -9 -80 -11 -13 -3 -39 -7 -59 -10 -20 -3 -47 -8 -60
-10 -14 -3 -38 -8 -55 -10 -75 -13 -195 -38 -250 -52 -33 -8 -71 -17 -85 -19
-125 -22 -444 -121 -711 -219 -218 -81 -405 -140 -479 -151 -19 -3 -41 -7 -49
-10 -24 -8 -153 -18 -236 -18 -247 0 -373 48 -503 189 -100 109 -133 207 -92
273 25 40 60 55 97 41 29 -11 50 -32 94 -96 40 -57 103 -109 174 -143 76 -36
117 -44 235 -44 100 -1 140 4 240 29 11 3 28 7 38 9 135 34 479 135 712 211
268 87 432 136 500 149 14 3 34 7 45 10 61 15 220 46 262 52 26 3 55 8 65 9 9
2 38 7 65 11 26 3 56 8 65 10 9 1 48 6 85 9 37 4 77 9 87 11 131 24 606 24
734 -1 11 -2 43 -6 72 -10 29 -4 62 -9 74 -11 12 -2 32 -6 46 -9 48 -9 66 -13
130 -29 116 -30 312 -97 439 -152 69 -29 128 -51 132 -48 8 5 4 271 -4 309 -3
11 -8 43 -11 70 -4 28 -16 91 -27 141 l-20 91 22 54 c11 30 23 63 25 74 2 11
8 42 13 68 9 49 7 229 -3 245 -3 5 -8 24 -11 42 -10 55 -56 139 -98 177 -47
42 -93 63 -146 66 -39 2 -40 4 -87 92 -146 275 -282 462 -680 930 -170 200
-176 207 -277 320 -255 283 -638 666 -859 858 -18 16 -44 38 -58 50 -170 149
-434 349 -606 460 l-121 78 -79 162 c-333 685 -759 1271 -1275 1752 -527 492
-905 779 -1639 1244 -250 159 -561 322 -772 405 -151 59 -605 195 -742 222
-20 4 -75 14 -107 19 -8 2 -55 6 -105 10 -49 4 -98 9 -109 11 -62 13 -234 11
-283 -2z m4468 -4068 c14 -3 59 -13 100 -22 391 -86 735 -363 879 -709 38 -91
78 -227 88 -302 10 -73 10 -249 1 -328 -51 -416 -330 -804 -730 -1015 -86 -45
-292 -122 -363 -134 -16 -3 -41 -8 -55 -11 -89 -20 -317 -26 -420 -12 -115 15
-137 20 -219 43 -379 110 -677 373 -818 721 -202 502 -43 1075 402 1450 195
163 473 287 720 319 28 3 52 8 54 10 6 5 333 -3 361 -10z m1219 -1393 c47
-178 49 -380 5 -572 -113 -496 -525 -897 -1051 -1022 -131 -31 -159 -34 -338
-34 -192 1 -285 15 -448 72 -301 104 -562 326 -696 592 -17 34 -29 61 -25 61
3 0 28 -20 55 -44 27 -24 83 -66 125 -92 42 -27 117 -86 166 -131 158 -145
348 -251 516 -288 12 -3 32 -7 45 -10 55 -13 76 -16 137 -22 143 -15 295 -5
425 26 549 133 940 566 981 1086 3 39 17 105 30 149 13 43 32 120 41 172 9 52
18 94 19 94 2 0 8 -17 13 -37z m1399 -1269 c137 -68 266 -285 276 -466 5 -91
-8 -109 -66 -97 -160 36 -309 173 -387 357 -24 59 -30 122 -13 163 11 28 82
69 118 69 11 0 43 -12 72 -26z"/>
<path d="M4735 5894 c-440 -80 -793 -385 -909 -786 -30 -105 -38 -161 -37
-274 1 -345 203 -664 522 -825 75 -37 167 -72 225 -84 260 -55 494 -35 724 63
159 67 279 151 400 278 192 202 292 454 285 718 -4 141 -24 228 -80 351 -135
295 -389 486 -750 561 -66 13 -301 12 -380 -2z"/>
<path d="M7258 6018 c-139 -116 -255 -213 -258 -215 -9 -8 23 -21 81 -33 33
-7 59 -16 59 -19 0 -4 -38 -38 -85 -76 -46 -39 -83 -73 -82 -77 1 -3 63 -69
137 -145 237 -244 405 -426 553 -597 10 -12 28 -32 40 -46 48 -54 335 -399
381 -458 27 -34 50 -62 52 -62 2 0 44 34 94 76 51 42 93 74 95 72 2 -1 6 -32
10 -68 7 -68 15 -123 18 -126 5 -5 477 398 473 404 -2 4 -7 40 -10 80 -4 40
-9 78 -11 85 -2 7 -7 30 -10 52 -27 190 -131 453 -247 630 -178 272 -419 482
-710 620 -85 40 -291 115 -316 115 -6 0 -125 -95 -264 -212z m366 41 c396
-137 729 -435 910 -813 41 -85 100 -250 110 -306 2 -14 9 -45 14 -70 6 -25 14
-70 17 -100 4 -30 9 -58 11 -62 5 -8 -26 -37 -146 -136 l-84 -70 -32 128 c-63
250 -177 477 -336 672 -58 72 -182 196 -247 248 -132 106 -342 224 -499 280
-34 13 -61 26 -60 30 6 16 254 219 267 219 8 1 42 -8 75 -20z"/>
</g>
</svg>
